<?xml version="1.0" encoding="UTF-8"?>
<!DOCTYPE svg PUBLIC "-//W3C//DTD SVG 1.1//EN" "http://www.w3.org/Graphics/SVG/1.1/DTD/svg11.dtd">
<!-- Creator: CorelDRAW -->
<svg xmlns="http://www.w3.org/2000/svg" xml:space="preserve" width="82mm" height="95mm" style="shape-rendering:geometricPrecision; text-rendering:geometricPrecision; image-rendering:optimizeQuality; fill-rule:evenodd; clip-rule:evenodd"
viewBox="0 0 82 95">
 <defs>
  <style type="text/css">
   <![CDATA[
    .str2 {stroke:#0A0B0C;stroke-width:0.6;stroke-linecap:round;stroke-linejoin:round}
    .str1 {stroke:#1F1A17;stroke-width:0.6;stroke-linecap:round;stroke-linejoin:round}
    .str0 {stroke:#A92926;stroke-width:0.6;stroke-linecap:round;stroke-linejoin:round}
    .fil0 {fill:#0A0B0C}
    .fil2 {fill:#1F1A17}
    .fil1 {fill:#D52E26}
   ]]>
  </style>
 </defs>
 <g id="Слой_x0020_1">
  <metadata id="CorelCorpID_0Corel-Layer"/>
  <path class="fil0" d="M44.1433 22.903c-6.2291,-1.0602 -6.1062,-6.5682 -4.771,-10.9924 0.622,-2.0608 2.9384,-6.2818 8.039,-8.0385 -5.9093,-0.3571 -6.938,4.2376 -7.9357,3.8311 -0.6533,-0.2662 0.2105,-4.3919 0.9787,-6.1537 -3.2417,1.9847 -2.3654,7.6707 -2.5742,9.5415 -0.4987,4.4673 -1.3686,5.0793 -4.1643,1.5508 -0.9249,-1.1674 -1.1698,-2.2319 -1.5875,-4.9965 -1.6846,6.0377 3.9197,8.942 5.1838,11.2439 0.5525,1.0061 -0.4765,1.6556 -2.3233,0.8757 -1.0415,-0.4398 -1.2245,-0.6187 -2.2109,-2.1932 1.0639,5.5761 4.5889,2.0436 7.0005,6.1663 0.9357,-0.2318 1.8374,-0.2132 2.7051,0.0555l1.6598 -0.8905z"/>
  <path class="fil1 str0" d="M68.6719 51.1511l0.8895 1.2c0.494,-0.2318 1.3329,-0.5891 1.3581,-1.6358 0.0461,-1.9171 -0.2901,0.3398 -2.2423,0.4354 -2.8727,-2.4112 -3.9289,-4.0455 -8.8977,-3.9708 -4.2874,0.0645 -3.9215,1.474 -7.2623,1.5953 -2.1727,0.0788 -2.3577,-1.0532 -5.5248,-1.2116 -2.0273,-0.1014 -4.0061,1.4989 -5.0545,0.5604 -1.1107,-0.9941 -1.124,-3.8723 -0.2298,-4.8863 4.9902,-5.6594 4.8921,-12.7079 4.0391,-16.1714 -0.2336,-0.0408 -0.4774,-0.09 -0.7487,-0.1496 1.8859,0.4143 3.2446,0.5334 4.0356,-1.6031 0.4342,-1.1726 -0.0528,-0.998 -0.4956,-0.5181 -0.8523,0.9237 -2.3893,1.1361 -3.3151,0.8381 -0.9401,-1.1995 -2.4008,-1.9834 -3.8957,-2.0356 -2.976,-0.1039 -2.4604,1.4004 -6.2043,1.931l0.1168 0.4763 -0.1168 -0.4763c-0.7347,0.1041 -1.6578,0.1777 -2.8432,0.2025l-0.5951 2.2229c3.7001,0.0507 4.9088,1.3586 1.2778,1.341 -0.5659,-0.0027 -1.8529,-0.1928 -1.418,0.5851 0.3532,0.6318 0.6553,0.2649 1.389,0.2452 0.6472,-0.0174 1.4971,0.0469 2.3887,0.1586 0.9054,0.1134 1.1421,1.4328 2.7229,1.6779 1.8483,0.2866 3.4454,-0.951 5.0518,-3.098 -1.6064,2.147 -3.2034,3.3847 -5.0518,3.098 -0.0484,2.0296 -0.5384,4.4264 -3.2225,4.9269 -1.0961,0.2043 -9.949,1.8017 -9.983,10.1035 -0.0138,3.3604 -0.0549,3.3025 0.0581,5.1726 0.1188,1.9658 0.7363,3.2921 1.1586,4.6487 -3.4166,0.7667 -3.7193,1.2889 -5.5008,1.7569 -2.8612,0.7515 -5.8318,1.0104 -9.042,0.8327l-0.6111 0.3997c-1.4847,3.5761 -5.7972,6.1579 -9.2558,9.1267l-0.0542 0.2644c0.3273,1.4208 0.0276,2.9702 -0.2162,4.2773l1.6829 -0.5854c-0.0851,-1.179 0.0876,-2.2826 0.658,-3.1843l0.9004 -0.418c2.8042,-3.1214 5.4813,-5.1473 8.6086,-7.4604 2.33,-0.8447 5.4674,-0.7783 7.3433,-0.4889 2.4973,0.3852 4.5655,2.1829 7.7729,2.8661 -0.2657,-1.204 -0.2899,-2.5275 -0.2359,-3.5053 -0.054,0.9778 -0.0298,2.3013 0.2359,3.5053 0.2851,1.2918 0.5843,2.6576 1.0119,3.4736 1.4002,2.6717 1.7732,4.7041 1.4239,8.2167l0.1559 0.4246c2.0304,2.8641 3.8344,5.9427 4.7555,10.4515l0.0156 0.2017c-0.0574,1.2096 -1.2268,3.2938 -2.8797,5.1786l1.7108 0.4967c0.8406,-1.5554 2.2557,-3.2183 3.7961,-4.4492l0.0274 -0.6313c-1.9608,-3.7886 -3.4345,-8.1659 -4.225,-12.5449l-0.0992 -0.3971c-1.2535,-2.4535 -1.279,-7.5477 0.8481,-9.2318 0.6835,-0.5412 0.0933,-5.1052 0.1399,-7.6578 -0.0466,2.5526 0.5436,7.1166 -0.1399,7.6578 3.9657,3.5254 10.0092,0.35 17.3431,-1.4864 1.833,-0.459 3.3403,-1.0467 4.4935,-1.6606 -1.1532,0.6139 -2.6603,1.2016 -4.4935,1.6606 -1.6529,1.4316 -1.4691,6.1286 0.9318,14.767 0.0382,1.9564 -2.8209,6.2751 -5.2358,8.5229 -0.6902,2.1112 -1.5941,3.4278 -3.1393,4.9541l1.7108 0.4967c0.7943,-1.6762 1.923,-2.7873 2.9433,-3.3076l0.6731 -0.6066c0.5451,-2.8385 3.89,-6.9527 6.1721,-9.663l0 -1.0564c-1.864,-2.3698 -1.9991,-3.4104 -2.0095,-4.3095 -0.0332,-2.8783 4.7022,-2.8662 6.4774,-6.9975 -1.9671,-1.1623 -4.1442,-3.8851 -5.5779,-7.7876 1.4337,3.9025 3.6108,6.6253 5.5779,7.7876 7.9138,4.676 10.6607,5.9939 14.1535,11.0111 1.6803,2.4135 2.8628,6.0362 4.2346,10.1234 -0.871,1.7874 -1.7606,3.1185 -2.8654,4.3094l1.7108 0.4967c0.7199,-1.0907 1.987,-3.122 3.2756,-3.2199l-0.2793 -1.4771c-1.8572,-3.5727 -2.5474,-7.2227 -2.9927,-11.3627l-0.6029 -1.098c-5.0336,-3.094 -8.7369,-8.1049 -8.0407,-12.6879 0.4662,-3.0686 3.713,-4.6636 0.2169,-10.4474l-0.8895 -1.2z"/>
  <ellipse class="fil0" cx="39.4155" cy="26.3167" rx="0.799298" ry="0.514224"/>
  <path class="fil2 str1" d="M32.2884 25.7203l-0.6033 2.2341c-0.6174,-0.0003 -0.8571,-0.8072 -0.8267,-1.5991 0.0245,-0.6371 0.4677,-0.6499 1.43,-0.635z"/>
  <path class="fil0 str2" d="M46.4449 94.2831l0.0497 -1.639 -1.7108 -0.4967c-1.0087,0.4973 -1.671,1.2033 -2.2901,2.1357l3.9512 0z"/>
  <path class="fil0 str2" d="M34.4869 94.2831l0.0497 -1.639 -1.7108 -0.4967c-1.0087,0.4973 -1.671,1.2033 -2.2901,2.1357l3.9512 0z"/>
  <path class="fil0 str2" d="M77.9348 94.2831l0.0497 -1.639 -1.7108 -0.4967c-1.0087,0.4973 -1.671,1.2033 -2.2901,2.1357l3.9512 0z"/>
  <path class="fil0 str2" d="M3.967 74.2518l-0.9081 -1.3653 -1.6826 0.5852c-0.5347,0.9894 -0.6662,1.9485 -0.6313,3.0672l3.222 -2.2871z"/>
  <path class="fil0" d="M42.4835 23.7935c0.8678,0.2687 1.7016,0.7877 2.5014,1.557 3.9888,-3.4782 9.3012,-4.2361 11.6542,-8.9957 1.5477,-3.1305 2.0137,-11.0856 -0.6496,-15.6379 1.538,11.3429 -0.4956,14.6423 -3.0566,3.944 -1.137,6.1837 4.2133,10.2242 0.6061,13.4728 -1.9106,1.7208 -3.2141,-0.3945 -4.5501,-5.4862 -1.777,4.6751 1.7387,6.2191 -0.0105,8.0489 -1.9557,2.046 -4.4384,1.8701 -4.8209,-2.9217 -1.1902,1.6349 -0.5965,3.5999 -0.0142,5.1283l-1.302 -0.1535 -2.1431 0.0064 1.7853 1.0376z"/>
 </g>
</svg>
